<svg id="_18x18" data-name="18x18" xmlns="http://www.w3.org/2000/svg" width="18" height="18" viewBox="0 0 18 18">
  <defs>
    <style>
      .cls-1 {
        fill: #3e2419;
        fill-rule: evenodd;
      }
    </style>
  </defs>
  <path id="icon_pswd_sel" class="cls-1" d="M16.385,2.325A12.208,12.208,0,0,1,9.341.073a0.639,0.639,0,0,0-.683,0A12.207,12.207,0,0,1,1.615,2.325,0.6,0.6,0,0,0,1,2.913V9.086a9.132,9.132,0,0,0,7.9,8.906,0.638,0.638,0,0,0,.2,0A9.133,9.133,0,0,0,17,9.086V2.913A0.6,0.6,0,0,0,16.385,2.325ZM9,14.081a5.425,5.425,0,0,1-5.538-5.29A5.425,5.425,0,0,1,9,3.5a5.424,5.424,0,0,1,5.538,5.29A5.424,5.424,0,0,1,9,14.081Zm0-9.4A4.219,4.219,0,0,0,4.692,8.791a3.973,3.973,0,0,0,.9,2.5,5.616,5.616,0,0,1,2.061-.974A2.124,2.124,0,0,1,6.743,8.6,2.21,2.21,0,0,1,9,6.44,2.21,2.21,0,0,1,11.256,8.6a2.123,2.123,0,0,1-.906,1.726,5.625,5.625,0,0,1,2.062.973,3.974,3.974,0,0,0,.9-2.5A4.219,4.219,0,0,0,9,4.677Z"/>
</svg>
