<svg id="icon_img" xmlns="http://www.w3.org/2000/svg" width="60" height="60" viewBox="0 0 60 60">
  <defs>
    <style>
      .cls-1 {
        fill: #fff;
        stroke: #c8ac8f;
        stroke-width: 1px;
      }

      .cls-1, .cls-2 {
        fill-rule: evenodd;
      }

      .cls-2 {
        fill: #c8ac8f;
      }
    </style>
  </defs>
  <path id="Rounded_Rectangle_2" data-name="Rounded Rectangle 2" class="cls-1" d="M30.571,2H15a4,4,0,0,0-4,4V54a4,4,0,0,0,4,4H46a4,4,0,0,0,4-4V21.714Z"/>
  <path id="Rounded_Rectangle_2_copy" data-name="Rounded Rectangle 2 copy" class="cls-1" d="M30,2.25V18a4,4,0,0,0,4,4H49.75"/>
  <path id="W" class="cls-2" d="M18.034,33.952a5.5,5.5,0,0,1,1.471.357,2.837,2.837,0,0,1,1.226,1.677c1.008,2.721,3.46,10.336,4.3,13.964a9.613,9.613,0,0,1,1.989,0c0.79-2.556,2.616-7.5,3.678-10.308,0.027-.055.109-0.082,0.136-0.028,0.763,1.7,3.188,8.247,3.9,10.391a9.573,9.573,0,0,1,1.989-.055C37.868,46.4,40.1,39.478,41.409,35.932a2.381,2.381,0,0,1,1.362-1.677,9.458,9.458,0,0,1,1.144-.3,2.158,2.158,0,0,0,0-.935c-0.6,0-1.417.082-3.242,0.082-1.607,0-2.806-.082-3.433-0.082a1.367,1.367,0,0,0-.027.935,8.767,8.767,0,0,1,1.771.385c0.763,0.247.817,0.8,0.681,1.594-0.3,1.512-1.607,5.965-2.479,8.576a0.123,0.123,0,0,1-.163.028c-0.681-1.567-3.351-8.412-4.032-10.583a9.108,9.108,0,0,1-1.934,0c-0.627,2.419-2.316,7.477-3.324,10.006-0.027.055-.109,0.11-0.164,0.027-0.654-1.924-1.961-5.992-2.779-8.961a0.62,0.62,0,0,1,.272-0.715,7.327,7.327,0,0,1,1.335-.357,1.374,1.374,0,0,0,0-.935c-1.117,0-1.8.082-4.087,0.082-2.261,0-3-.082-4.2-0.082A1.541,1.541,0,0,0,18.034,33.952Z"/>
</svg>
