<svg id="_14x14" data-name="14x14" xmlns="http://www.w3.org/2000/svg" width="14" height="14" viewBox="0 0 14 14">
  <defs>
    <style>
      .cls-1 {
        fill: #c8ac8f;
        fill-rule: evenodd;
      }
    </style>
  </defs>
  <path id="icon_forgotK" class="cls-1" d="M1.64,0A1.654,1.654,0,0,0,0,1.666V12.333A1.654,1.654,0,0,0,1.64,14H12.36A1.654,1.654,0,0,0,14,12.333V1.666A1.654,1.654,0,0,0,12.36,0H1.64ZM5.016,5.666a1.968,1.968,0,1,1,3.936,0A2,2,0,0,1,7.968,7.4v2.935H6V7.4A2,2,0,0,1,5.016,5.666Z"/>
</svg>
