<svg id="_60x60" data-name="60x60" xmlns="http://www.w3.org/2000/svg" width="60" height="60" viewBox="0 0 60 60">
  <defs>
    <style>
      .cls-1 {
        fill: #c8ac8f;
        fill-rule: evenodd;
      }
    </style>
  </defs>
  <path id="icon_upload" class="cls-1" d="M55.453,29.376a1.54,1.54,0,0,0-1.547,1.546v14.06a6.939,6.939,0,0,1-6.933,6.927H13.028a6.94,6.94,0,0,1-6.933-6.927V30.693a1.547,1.547,0,0,0-3.094,0V44.982A10.034,10.034,0,0,0,13.028,55H46.972A10.034,10.034,0,0,0,57,44.982V30.922A1.547,1.547,0,0,0,55.453,29.376Zm-34.2-11.908,7.2-7.19v31.36a1.547,1.547,0,0,0,3.094,0V10.278l7.2,7.19a1.558,1.558,0,0,0,1.089.458,1.491,1.491,0,0,0,1.089-.458,1.54,1.54,0,0,0,0-2.187L31.089,5.458A1.567,1.567,0,0,0,30,5a1.5,1.5,0,0,0-1.089.458l-9.833,9.824A1.543,1.543,0,1,0,21.256,17.468Z"/>
</svg>
