<svg id="_18x18" data-name="18x18" xmlns="http://www.w3.org/2000/svg" width="18" height="18" viewBox="0 0 18 18">
  <defs>
    <style>
      .cls-1 {
        fill: #41271e;
        fill-rule: evenodd;
      }
    </style>
  </defs>
  <path id="icon_basicInf_sel" class="cls-1" d="M6.076,6.623c1.353,0,2.454-1.485,2.454-3.312S7.429,0,6.076,0,3.622,1.485,3.622,3.312,4.722,6.623,6.076,6.623Zm5.849,0c1.352,0,2.453-1.485,2.453-3.312S13.276,0,11.924,0,9.471,1.485,9.471,3.312,10.571,6.623,11.924,6.623ZM16.5,4.972c-1.064-.211-2.114.733-2.392,2.151s0.338,2.69,1.4,2.9,2.114-.734,2.391-2.15S17.567,5.182,16.5,4.972ZM3.887,7.122C3.609,5.7,2.56,4.761,1.5,4.972s-1.68,1.484-1.4,2.9,1.328,2.36,2.391,2.15S4.164,8.538,3.887,7.122ZM12.7,10.767a3.749,3.749,0,0,0-7.407,0A3.776,3.776,0,0,0,6.791,18,3.717,3.717,0,0,0,9,17.275,3.717,3.717,0,0,0,11.209,18,3.776,3.776,0,0,0,12.7,10.767Z"/>
</svg>
