<svg id="icon_mem_profe" xmlns="http://www.w3.org/2000/svg" width="20" height="23" viewBox="0 0 20 23">
  <defs>
    <style>
      .cls-1 {
        fill: #f6a047;
      }

      .cls-1, .cls-2, .cls-3 {
        fill-rule: evenodd;
      }

      .cls-2 {
        fill: #e87f31;
      }

      .cls-3 {
        fill: #fff;
      }
    </style>
  </defs>
  <path id="Rounded_Rectangle_2" data-name="Rounded Rectangle 2" class="cls-1" d="M10-92A10,10,0,0,1,20-82V13A10,10,0,0,1,0,13V-82A10,10,0,0,1,10-92Zm-39-33H99V0H-29V-125Z"/>
  <path id="icon_basicInf_copy_2" data-name="icon_basicInf copy 2" class="cls-2" d="M9.044,10.416a1.991,1.991,0,0,0,1.641-2.208A1.991,1.991,0,0,0,9.044,6,1.991,1.991,0,0,0,7.4,8.208,1.991,1.991,0,0,0,9.044,10.416Zm3.913,0A1.992,1.992,0,0,0,14.6,8.208,1.991,1.991,0,0,0,12.956,6a1.991,1.991,0,0,0-1.642,2.208A1.991,1.991,0,0,0,12.956,10.416Zm3.064-1.1a1.532,1.532,0,0,0-1.6,1.434,1.534,1.534,0,0,0,.938,1.934,1.532,1.532,0,0,0,1.6-1.433A1.535,1.535,0,0,0,16.02,9.314ZM7.579,10.748a1.532,1.532,0,0,0-1.6-1.434,1.535,1.535,0,0,0-.938,1.935,1.532,1.532,0,0,0,1.6,1.433A1.534,1.534,0,0,0,7.579,10.748Zm5.9,2.429a2.509,2.509,0,0,0-4.955,0,2.516,2.516,0,0,0,1,4.822A2.493,2.493,0,0,0,11,17.517a2.507,2.507,0,0,0,3.988-2.032A2.519,2.519,0,0,0,13.478,13.178Z"/>
  <path id="icon_basicInf_copy" data-name="icon_basicInf copy" class="cls-3" d="M8.044,9.416A1.991,1.991,0,0,0,9.685,7.208,1.991,1.991,0,0,0,8.044,5,1.991,1.991,0,0,0,6.4,7.208,1.991,1.991,0,0,0,8.044,9.416Zm3.913,0A1.992,1.992,0,0,0,13.6,7.208,1.991,1.991,0,0,0,11.956,5a1.991,1.991,0,0,0-1.642,2.208A1.991,1.991,0,0,0,11.956,9.416Zm3.064-1.1a1.532,1.532,0,0,0-1.6,1.434,1.534,1.534,0,0,0,.938,1.934,1.532,1.532,0,0,0,1.6-1.433A1.535,1.535,0,0,0,15.02,8.314ZM6.579,9.748a1.532,1.532,0,0,0-1.6-1.434,1.535,1.535,0,0,0-.938,1.935,1.532,1.532,0,0,0,1.6,1.433A1.534,1.534,0,0,0,6.579,9.748Zm5.9,2.43a2.509,2.509,0,0,0-4.955,0,2.516,2.516,0,0,0,1,4.822A2.493,2.493,0,0,0,10,16.517a2.507,2.507,0,0,0,3.988-2.032A2.519,2.519,0,0,0,12.478,12.178Z"/>
</svg>
