<svg id="icon_general" xmlns="http://www.w3.org/2000/svg" width="20" height="23" viewBox="0 0 20 23">
  <defs>
    <style>
      .cls-1 {
        fill: #fc481f;
      }

      .cls-1, .cls-2, .cls-3 {
        fill-rule: evenodd;
      }

      .cls-2 {
        fill: #cd2f0b;
      }

      .cls-3 {
        fill: #fff;
      }
    </style>
  </defs>
  <path id="Rounded_Rectangle_2" data-name="Rounded Rectangle 2" class="cls-1" d="M10-92A10,10,0,0,1,20-82V13A10,10,0,0,1,0,13V-82A10,10,0,0,1,10-92Zm-39-33H99V0H-29V-125Z"/>
  <path class="cls-2" d="M16.291,9.975L13.145,9.5l-1.41-3.02a0.808,0.808,0,0,0-1.477,0L8.848,9.5,5.7,9.975a0.863,0.863,0,0,0-.455,1.455l2.28,2.31L6.988,17a0.828,0.828,0,0,0,1.191.9L11,16.362l2.818,1.54A0.828,0.828,0,0,0,15,17l-0.538-3.262,2.28-2.31A0.863,0.863,0,0,0,16.291,9.975Zm-3.279,2.856a0.875,0.875,0,0,0-.236.755l0.33,2-1.728-.944a0.793,0.793,0,0,0-.764,0l-1.728.944,0.33-2a0.875,0.875,0,0,0-.236-0.755l-1.4-1.416,1.932-.292a0.824,0.824,0,0,0,.62-0.472L11,8.806l0.862,1.845a0.824,0.824,0,0,0,.62.472l1.932,0.292Z"/>
  <path id="Shape_1_copy" data-name="Shape 1 copy" class="cls-3" d="M15.291,8.975L12.145,8.5l-1.41-3.02a0.808,0.808,0,0,0-1.477,0L7.848,8.5,4.7,8.975a0.863,0.863,0,0,0-.455,1.455l2.28,2.31L5.988,16a0.828,0.828,0,0,0,1.191.9L10,15.362l2.818,1.54A0.828,0.828,0,0,0,14,16l-0.538-3.262,2.28-2.31A0.863,0.863,0,0,0,15.291,8.975Zm-3.279,2.856a0.875,0.875,0,0,0-.236.755l0.33,2-1.728-.944a0.793,0.793,0,0,0-.764,0l-1.728.944,0.33-2a0.875,0.875,0,0,0-.236-0.755l-1.4-1.416,1.932-.292a0.824,0.824,0,0,0,.62-0.472L10,7.806l0.862,1.845a0.824,0.824,0,0,0,.62.472l1.932,0.292Z"/>
</svg>
